<?xml version="1.0" encoding="UTF-8"?><svg xmlns="http://www.w3.org/2000/svg" viewBox="0 0 200 200" width="200" height="200"><defs><linearGradient id="grad" x1="0%" y1="0%" x2="100%" y2="100%"><stop offset="0%" stop-color="#10b981"/><stop offset="100%" stop-color="#0ea5e9"/></linearGradient><radialGradient id="eyeGrad" cx="50%" cy="50%" r="50%"><stop offset="0%" stop-color="#0f172a"/><stop offset="100%" stop-color="#1e293b"/></radialGradient></defs><line x1="100.0" y1="86.0" x2="112.1" y2="93.0" stroke="url(#grad)" stroke-width="1.3" stroke-linecap="round" opacity="0.75"/><line x1="112.1" y1="93.0" x2="112.1" y2="107.0" stroke="url(#grad)" stroke-width="1.3" stroke-linecap="round" opacity="0.75"/><line x1="112.1" y1="107.0" x2="100.0" y2="114.0" stroke="url(#grad)" stroke-width="1.3" stroke-linecap="round" opacity="0.75"/><line x1="100.0" y1="114.0" x2="87.9" y2="107.0" stroke="url(#grad)" stroke-width="1.3" stroke-linecap="round" opacity="0.75"/><line x1="87.9" y1="107.0" x2="87.9" y2="93.0" stroke="url(#grad)" stroke-width="1.3" stroke-linecap="round" opacity="0.75"/><line x1="87.9" y1="93.0" x2="100.0" y2="86.0" stroke="url(#grad)" stroke-width="1.3" stroke-linecap="round" opacity="0.75"/><line x1="100.0" y1="76.0" x2="114.1" y2="80.6" stroke="url(#grad)" stroke-width="1.3" stroke-linecap="round" opacity="0.75"/><line x1="100.0" y1="76.0" x2="100.0" y2="86.0" stroke="url(#grad)" stroke-width="1.3" stroke-linecap="round" opacity="0.75"/><line x1="114.1" y1="80.6" x2="122.8" y2="92.6" stroke="url(#grad)" stroke-width="1.3" stroke-linecap="round" opacity="0.75"/><line x1="114.1" y1="80.6" x2="112.1" y2="93.0" stroke="url(#grad)" stroke-width="1.3" stroke-linecap="round" opacity="0.75"/><line x1="122.8" y1="92.6" x2="122.8" y2="107.4" stroke="url(#grad)" stroke-width="1.3" stroke-linecap="round" opacity="0.75"/><line x1="122.8" y1="92.6" x2="112.1" y2="93.0" stroke="url(#grad)" stroke-width="1.3" stroke-linecap="round" opacity="0.75"/><line x1="122.8" y1="107.4" x2="114.1" y2="119.4" stroke="url(#grad)" stroke-width="1.3" stroke-linecap="round" opacity="0.75"/><line x1="122.8" y1="107.4" x2="112.1" y2="107.0" stroke="url(#grad)" stroke-width="1.3" stroke-linecap="round" opacity="0.75"/><line x1="114.1" y1="119.4" x2="100.0" y2="124.0" stroke="url(#grad)" stroke-width="1.3" stroke-linecap="round" opacity="0.75"/><line x1="114.1" y1="119.4" x2="112.1" y2="107.0" stroke="url(#grad)" stroke-width="1.3" stroke-linecap="round" opacity="0.75"/><line x1="100.0" y1="124.0" x2="85.9" y2="119.4" stroke="url(#grad)" stroke-width="1.3" stroke-linecap="round" opacity="0.75"/><line x1="100.0" y1="124.0" x2="100.0" y2="114.0" stroke="url(#grad)" stroke-width="1.3" stroke-linecap="round" opacity="0.75"/><line x1="85.9" y1="119.4" x2="77.2" y2="107.4" stroke="url(#grad)" stroke-width="1.3" stroke-linecap="round" opacity="0.75"/><line x1="85.9" y1="119.4" x2="87.9" y2="107.0" stroke="url(#grad)" stroke-width="1.3" stroke-linecap="round" opacity="0.75"/><line x1="77.2" y1="107.4" x2="77.2" y2="92.6" stroke="url(#grad)" stroke-width="1.3" stroke-linecap="round" opacity="0.75"/><line x1="77.2" y1="107.4" x2="87.9" y2="107.0" stroke="url(#grad)" stroke-width="1.3" stroke-linecap="round" opacity="0.75"/><line x1="77.2" y1="92.6" x2="85.9" y2="80.6" stroke="url(#grad)" stroke-width="1.3" stroke-linecap="round" opacity="0.75"/><line x1="77.2" y1="92.6" x2="87.9" y2="93.0" stroke="url(#grad)" stroke-width="1.3" stroke-linecap="round" opacity="0.75"/><line x1="85.9" y1="80.6" x2="100.0" y2="76.0" stroke="url(#grad)" stroke-width="1.3" stroke-linecap="round" opacity="0.75"/><line x1="85.9" y1="80.6" x2="87.9" y2="93.0" stroke="url(#grad)" stroke-width="1.3" stroke-linecap="round" opacity="0.75"/><line x1="100.0" y1="60.0" x2="117.4" y2="64.0" stroke="url(#grad)" stroke-width="1.3" stroke-linecap="round" opacity="0.75"/><line x1="100.0" y1="60.0" x2="100.0" y2="76.0" stroke="url(#grad)" stroke-width="1.3" stroke-linecap="round" opacity="0.75"/><line x1="117.4" y1="64.0" x2="131.3" y2="75.1" stroke="url(#grad)" stroke-width="1.3" stroke-linecap="round" opacity="0.75"/><line x1="117.4" y1="64.0" x2="114.1" y2="80.6" stroke="url(#grad)" stroke-width="1.3" stroke-linecap="round" opacity="0.75"/><line x1="131.3" y1="75.1" x2="139.0" y2="91.1" stroke="url(#grad)" stroke-width="1.3" stroke-linecap="round" opacity="0.75"/><line x1="131.3" y1="75.1" x2="114.1" y2="80.6" stroke="url(#grad)" stroke-width="1.3" stroke-linecap="round" opacity="0.75"/><line x1="139.0" y1="91.1" x2="139.0" y2="108.9" stroke="url(#grad)" stroke-width="1.3" stroke-linecap="round" opacity="0.75"/><line x1="139.0" y1="91.1" x2="122.8" y2="92.6" stroke="url(#grad)" stroke-width="1.3" stroke-linecap="round" opacity="0.75"/><line x1="139.0" y1="108.9" x2="131.3" y2="124.9" stroke="url(#grad)" stroke-width="1.3" stroke-linecap="round" opacity="0.75"/><line x1="139.0" y1="108.9" x2="122.8" y2="107.4" stroke="url(#grad)" stroke-width="1.3" stroke-linecap="round" opacity="0.75"/><line x1="131.3" y1="124.9" x2="117.4" y2="136.0" stroke="url(#grad)" stroke-width="1.3" stroke-linecap="round" opacity="0.75"/><line x1="131.3" y1="124.9" x2="114.1" y2="119.4" stroke="url(#grad)" stroke-width="1.3" stroke-linecap="round" opacity="0.75"/><line x1="117.4" y1="136.0" x2="100.0" y2="140.0" stroke="url(#grad)" stroke-width="1.3" stroke-linecap="round" opacity="0.75"/><line x1="117.4" y1="136.0" x2="114.1" y2="119.4" stroke="url(#grad)" stroke-width="1.3" stroke-linecap="round" opacity="0.75"/><line x1="100.0" y1="140.0" x2="82.6" y2="136.0" stroke="url(#grad)" stroke-width="1.3" stroke-linecap="round" opacity="0.75"/><line x1="100.0" y1="140.0" x2="100.0" y2="124.0" stroke="url(#grad)" stroke-width="1.3" stroke-linecap="round" opacity="0.75"/><line x1="82.6" y1="136.0" x2="68.7" y2="124.9" stroke="url(#grad)" stroke-width="1.3" stroke-linecap="round" opacity="0.75"/><line x1="82.6" y1="136.0" x2="85.9" y2="119.4" stroke="url(#grad)" stroke-width="1.3" stroke-linecap="round" opacity="0.75"/><line x1="68.7" y1="124.9" x2="61.0" y2="108.9" stroke="url(#grad)" stroke-width="1.3" stroke-linecap="round" opacity="0.75"/><line x1="68.7" y1="124.9" x2="85.9" y2="119.4" stroke="url(#grad)" stroke-width="1.3" stroke-linecap="round" opacity="0.75"/><line x1="61.0" y1="108.9" x2="61.0" y2="91.1" stroke="url(#grad)" stroke-width="1.3" stroke-linecap="round" opacity="0.75"/><line x1="61.0" y1="108.9" x2="77.2" y2="107.4" stroke="url(#grad)" stroke-width="1.3" stroke-linecap="round" opacity="0.75"/><line x1="61.0" y1="91.1" x2="68.7" y2="75.1" stroke="url(#grad)" stroke-width="1.3" stroke-linecap="round" opacity="0.75"/><line x1="61.0" y1="91.1" x2="77.2" y2="92.6" stroke="url(#grad)" stroke-width="1.3" stroke-linecap="round" opacity="0.75"/><line x1="68.7" y1="75.1" x2="82.6" y2="64.0" stroke="url(#grad)" stroke-width="1.3" stroke-linecap="round" opacity="0.75"/><line x1="68.7" y1="75.1" x2="85.9" y2="80.6" stroke="url(#grad)" stroke-width="1.3" stroke-linecap="round" opacity="0.75"/><line x1="82.6" y1="64.0" x2="100.0" y2="60.0" stroke="url(#grad)" stroke-width="1.3" stroke-linecap="round" opacity="0.75"/><line x1="82.6" y1="64.0" x2="85.9" y2="80.6" stroke="url(#grad)" stroke-width="1.3" stroke-linecap="round" opacity="0.75"/><circle cx="100" cy="100" r="18" fill="url(#grad)" opacity="0.18"/><circle cx="100" cy="100" r="12" fill="url(#eyeGrad)" stroke="url(#grad)" stroke-width="2.2"/><circle cx="100" cy="100" r="5.5" fill="url(#grad)"/><circle cx="100.0" cy="86.0" r="3.4" fill="var(--color-bg, #0b0f14)" stroke="url(#grad)" stroke-width="1.6"/><circle cx="112.1" cy="93.0" r="3.4" fill="var(--color-bg, #0b0f14)" stroke="url(#grad)" stroke-width="1.6"/><circle cx="112.1" cy="107.0" r="3.4" fill="var(--color-bg, #0b0f14)" stroke="url(#grad)" stroke-width="1.6"/><circle cx="100.0" cy="114.0" r="3.4" fill="var(--color-bg, #0b0f14)" stroke="url(#grad)" stroke-width="1.6"/><circle cx="87.9" cy="107.0" r="3.4" fill="var(--color-bg, #0b0f14)" stroke="url(#grad)" stroke-width="1.6"/><circle cx="87.9" cy="93.0" r="3.4" fill="var(--color-bg, #0b0f14)" stroke="url(#grad)" stroke-width="1.6"/><circle cx="100.0" cy="76.0" r="2.7" fill="var(--color-bg, #0b0f14)" stroke="url(#grad)" stroke-width="1.6"/><circle cx="114.1" cy="80.6" r="2.7" fill="var(--color-bg, #0b0f14)" stroke="url(#grad)" stroke-width="1.6"/><circle cx="122.8" cy="92.6" r="2.7" fill="var(--color-bg, #0b0f14)" stroke="url(#grad)" stroke-width="1.6"/><circle cx="122.8" cy="107.4" r="2.7" fill="var(--color-bg, #0b0f14)" stroke="url(#grad)" stroke-width="1.6"/><circle cx="114.1" cy="119.4" r="2.7" fill="var(--color-bg, #0b0f14)" stroke="url(#grad)" stroke-width="1.6"/><circle cx="100.0" cy="124.0" r="2.7" fill="var(--color-bg, #0b0f14)" stroke="url(#grad)" stroke-width="1.6"/><circle cx="85.9" cy="119.4" r="2.7" fill="var(--color-bg, #0b0f14)" stroke="url(#grad)" stroke-width="1.6"/><circle cx="77.2" cy="107.4" r="2.7" fill="var(--color-bg, #0b0f14)" stroke="url(#grad)" stroke-width="1.6"/><circle cx="77.2" cy="92.6" r="2.7" fill="var(--color-bg, #0b0f14)" stroke="url(#grad)" stroke-width="1.6"/><circle cx="85.9" cy="80.6" r="2.7" fill="var(--color-bg, #0b0f14)" stroke="url(#grad)" stroke-width="1.6"/><circle cx="100.0" cy="60.0" r="2.2" fill="var(--color-bg, #0b0f14)" stroke="url(#grad)" stroke-width="1.6"/><circle cx="117.4" cy="64.0" r="2.2" fill="var(--color-bg, #0b0f14)" stroke="url(#grad)" stroke-width="1.6"/><circle cx="131.3" cy="75.1" r="2.2" fill="var(--color-bg, #0b0f14)" stroke="url(#grad)" stroke-width="1.6"/><circle cx="139.0" cy="91.1" r="2.2" fill="var(--color-bg, #0b0f14)" stroke="url(#grad)" stroke-width="1.6"/><circle cx="139.0" cy="108.9" r="2.2" fill="var(--color-bg, #0b0f14)" stroke="url(#grad)" stroke-width="1.6"/><circle cx="131.3" cy="124.9" r="2.2" fill="var(--color-bg, #0b0f14)" stroke="url(#grad)" stroke-width="1.6"/><circle cx="117.4" cy="136.0" r="2.2" fill="var(--color-bg, #0b0f14)" stroke="url(#grad)" stroke-width="1.6"/><circle cx="100.0" cy="140.0" r="2.2" fill="var(--color-bg, #0b0f14)" stroke="url(#grad)" stroke-width="1.6"/><circle cx="82.6" cy="136.0" r="2.2" fill="var(--color-bg, #0b0f14)" stroke="url(#grad)" stroke-width="1.6"/><circle cx="68.7" cy="124.9" r="2.2" fill="var(--color-bg, #0b0f14)" stroke="url(#grad)" stroke-width="1.6"/><circle cx="61.0" cy="108.9" r="2.2" fill="var(--color-bg, #0b0f14)" stroke="url(#grad)" stroke-width="1.6"/><circle cx="61.0" cy="91.1" r="2.2" fill="var(--color-bg, #0b0f14)" stroke="url(#grad)" stroke-width="1.6"/><circle cx="68.7" cy="75.1" r="2.2" fill="var(--color-bg, #0b0f14)" stroke="url(#grad)" stroke-width="1.6"/><circle cx="82.6" cy="64.0" r="2.2" fill="var(--color-bg, #0b0f14)" stroke="url(#grad)" stroke-width="1.6"/></svg>
